<svg xmlns="http://www.w3.org/2000/svg" viewBox="0 0 670 260" enable-background="new 0 0 670 260" xmlns:xlink="http://www.w3.org/1999/xlink" xmlns:a="http://ns.adobe.com/AdobeSVGViewerExtensions/3.0/">
  <defs>
    <path id="mainfill" d="M61.6 32.8c-11.3 0-19 7.5-19 19.3 0 11.1 6.9 18.7 18.3 18.7 7.2 0 13.8-3.3 21.6-9l-1.1 36.5c-7.7 3.1-15.2 4.6-22.8 4.6-11.8 0-22.7-3.5-31.5-10-13.1-9.6-20.1-23.9-20.1-40.9 0-29.4 21.8-51 52-51 7.9 0 15.3 1.6 22.8 4.9v36c-6.4-6.1-12.9-9.1-20.2-9.1zm36.4-29.5h43.8c25.9 0 39.2 11.9 39.2 32.7 0 13.8-7.5 23.5-18.7 24.8l25.9 39.5h-39.1l-17-32v32h-34.1v-97zm34.2 44h5.4c6.7 0 10.3-3.4 10.3-9.4s-3.5-9.6-10.3-9.6h-5.4v19zm63-44h64.9v26.3h-30.7v9.4h27.8v24.8h-27.8v10.2h31.5v26.3h-65.7v-97zm104.6 0h38.8l33.9 97.1h-37.5l-3.1-12.2h-26.3l-3 12.2h-37.5l34.7-97.1zm26.2 61.8l-3-11c-1.4-5.2-3.4-11.9-3.9-21.3h-.7c-.5 9.4-2.6 16.2-3.9 21.3l-3 11h14.5zm58.4-30h-19.4v-31.8h73.7v31.8h-19.4v65.3h-34.9v-65.3zm64.4-31.8h35.4v97.1h-35.4v-97.1zm41.4 0h37.7l10.3 35.2c1.5 5.2 3.8 12.5 4.8 22.9h.7c1.2-9 3.3-16.3 5-22.1l10.9-36h37.1l-36.9 97.1h-32.4l-37.2-97.1zm112.1 0h64.9v26.3h-30.7v9.4h27.8v24.8h-27.8v10.2h31.5v26.3h-65.7v-97zm-562.2 108h64.9v26.3h-30v11.3h27.1v24.8h-27.1v34.6h-34.9v-97zm77.1 0h43.8c25.9 0 39.2 11.9 39.2 32.7 0 13.8-7.5 23.5-18.7 24.8l25.9 39.5h-39.1l-17-32v32h-34.2v-97zm34.2 44h5.4c6.7 0 10.3-3.4 10.3-9.4s-3.5-9.6-10.3-9.6h-5.4v19zm63.6-44h35.4v97.1h-35.4v-97.1zm53.3 0h64.9v26.3h-30.7v9.4h27.8v24.8h-27.8v10.2h31.5v26.3h-65.7v-97zm80.9 0h34.2l30.1 50.8c-1-6.1-1.1-11.3-1.1-15.5v-35.300000000000004h33.7v97.1h-34.5l-29.8-50.4c1 6.2 1.1 11.4 1.1 15.3v35h-33.7v-97zm114.6 0h28.2c16.8 0 29.5 1.6 38.4 6.1 16.7 8.4 26.1 24 26.1 42.5 0 16-7.2 30-20.1 38.8-12.6 8.7-27.6 9.6-47 9.6h-25.7v-97zm57.3 48.6c0-12.8-7.1-18.7-21.2-18.7h-1.5v37.6c15.5-.3 22.7-5.7 22.7-18.9zm50.7 13.1c9.4 6.4 17 10 24.3 10 5 0 7.7-1.9 7.7-5 0-4.5-4.9-5-12.9-6.8-16.6-3.5-25-12.6-25-26.7 0-20.4 15.9-35.3 40.6-35.3 11.1 0 21.6 2.9 32.7 8.8l-10.6 25.4c-6.8-5-13.8-7.6-20-7.6-4.9 0-7.6 1.8-7.6 4.6 0 4.8 6.5 5.4 18.1 8 12.9 2.9 21.6 12.5 21.6 26.1 0 20.8-16.6 36.5-41.9 36.5-12.8 0-25.7-3.7-38.1-10.9l11.1-27.1z"/>
    <path id="mainoutline" d="M57 5c7.9 0 15.3 1.6 22.8 4.9v36c-6.4-6.1-12.9-9.1-20.2-9.1-11.3 0-19 7.5-19 19.3 0 11.1 6.9 18.7 18.3 18.7 7.2 0 13.8-3.3 21.6-9l-1.1 36.5c-7.7 3.1-15.2 4.6-22.8 4.6-11.8 0-22.7-3.5-31.5-10-13.1-9.6-20.1-23.9-20.1-40.9 0-29.4 21.8-51 52-51m608.2 2.3v26.3h-30.7v9.4h27.8v24.8h-27.8v10.2h31.5v26.3h-65.7v-97h64.9m-70.6 0l-36.9 97.1h-32.4l-37.1-97.1h37.7l10.3 35.2c1.5 5.2 3.8 12.5 4.8 22.9h.7c1.2-9 3.3-16.3 5-22.1l10.9-36h37m-112.3 0v97.1h-35.4v-97.1h35.4m-45.6 0v31.8h-19.4v65.3h-34.9v-65.3h-19.4v-31.8h73.7m-100.1 0l33.9 97.1h-37.5l-3.1-12.2h-26.3l-3 12.2h-37.5l34.6-97.1h38.9m-27.2 61.8h14.6l-3-11c-1.4-5.2-3.4-11.9-3.9-21.3h-.7c-.5 9.4-2.6 16.2-3.9 21.3l-3.1 11m-51.3-61.8v26.3h-30.7v9.4h27.8v24.8h-27.8v10.2h31.5v26.3h-65.7v-97h64.9m-118.2 0c25.9 0 39.2 11.9 39.2 32.7 0 13.8-7.5 23.5-18.7 24.8l25.9 39.5h-39.1l-17-32v32h-34.2v-97h43.9m-9.7 44h5.4c6.7 0 10.3-3.4 10.3-9.4s-3.5-9.6-10.3-9.6h-5.4v19m474.3 61.9c11.1 0 21.6 2.9 32.7 8.8l-10.6 25.4c-6.8-5-13.8-7.6-20-7.6-4.9 0-7.6 1.8-7.6 4.6 0 4.8 6.5 5.4 18.1 8 12.9 2.9 21.6 12.5 21.6 26.1 0 20.8-16.6 36.5-41.9 36.5-12.8 0-25.7-3.7-38.1-10.9l11.1-27.1c9.4 6.4 17 10 24.3 10 5 0 7.7-1.9 7.7-5 0-4.5-4.9-5-12.9-6.8-16.6-3.5-25-12.6-25-26.7 0-20.4 15.9-35.3 40.6-35.3m-114.5 2.1c16.8 0 29.5 1.6 38.4 6.1 16.7 8.4 26.1 24 26.1 42.5 0 16-7.2 30-20.1 38.8-12.6 8.7-27.6 9.6-47 9.6h-25.7v-97.1h28.3m6.4 67.6c15.5-.3 22.7-5.7 22.7-18.9 0-12.8-7.1-18.7-21.2-18.7h-1.5v37.6m-52.3-67.5v97.1h-34.5l-29.8-50.4c1 6.2 1.1 11.4 1.1 15.3v35h-33.7v-97.1h34.2l30.1 50.8c-1-6.1-1.1-11.3-1.1-15.5v-35.300000000000004h33.7m-112.9.1v26.3h-30.7v9.4h27.8v24.8h-27.8v10.2h31.5v26.3h-65.7v-97.1h64.9m-82.8.1v97.1h-35.4v-97.1h35.4m-89.4 0c25.9 0 39.2 11.9 39.2 32.7 0 13.8-7.5 23.5-18.7 24.8l25.9 39.5h-39.1l-17-32v32h-34.2v-97.1h43.9m-9.6 44.1h5.4c6.7 0 10.3-3.4 10.3-9.4s-3.5-9.6-10.3-9.6h-5.4v19m-46.4-44v26.3h-30v11.3h27.1v24.8h-27.1v34.6h-34.9v-97.1h64.9m-46-113.2c-15.4 0-29.4 5.4-39.4 15.3-10.1 9.9-15.6 23.7-15.6 38.7 0 17.7 7.6 33.1 21.3 43.3 9.4 7 20.9 10.6 33.3 10.6 8 0 15.9-1.6 23.9-4.8l1.8-.7.1-2 1.1-36.5.2-6.2-5 3.7c-8 5.9-13.9 8.4-19.8 8.4-9.5 0-15.3-6-15.3-15.7 0-10 6.1-16.3 16-16.3 6.5 0 12.3 2.6 18.2 8.3l5.1 4.9v-45l-1.9-.9c-7.9-3.4-15.8-5.1-24-5.1zm611.2 2.3h-113.00000000000001l-.6 2.1-10.9 36c-.7 2.5-1.5 5.1-2.3 8.1-.7-2.9-1.5-5.5-2.1-7.7l-.3-1.2-10.2-35.1-.6-2.2h-84.2v103.1h41.4v-99.2l.1.2 37.1 97.1.7 1.9h36.6l.7-1.9 36.9-96.9v98.8h71.5v-32.4h-31.5v-4.2h27.8v-30.8h-27.8v-3.4h30.7v-32.3zm-228.5 0h-79.7v37.8h19.4v65.3h40.9v-65.3h19.4v-37.8zm-101 0h-43l-.7 2-33 92.7v-24h-31.5v-4.2h27.8v-30.8h-27.8v-3.4h30.7v-32.3h-70.9v100.6l-1.4-2.1-23.5-35.9c10.4-3.3 16.8-13.4 16.8-26.8 0-11.4-3.7-20.3-10.9-26.4-7.2-6.2-17.8-9.3-31.3-9.3h-47v103.1h40.2v-23l11.3 21.4.8 1.6h157.70000000000002l.6-2.3 2.4-9.9h21.6l2.5 10 .6 2.3h44l-1.4-4-33.9-97.3-.7-2zm-205.5 31h2.4c4.9 0 7.3 2.2 7.3 6.6 0 2.7-.8 6.4-7.3 6.4h-2.4v-13zm180.2 30.8l2-7.2.4-1.6c.3-1.1.6-2.3 1-3.6.3 1.3.7 2.5 1 3.6l.4 1.6 2 7.2h-6.8zm291.1 44.1c-25.7 0-43.6 15.7-43.6 38.3 0 10.9 4.7 24.9 27.4 29.7.8.2 1.6.3 2.3.5 6.8 1.5 8.2 2 8.2 3.4 0 1.8-3.3 2-4.7 2-6 0-12.8-2.8-22.6-9.5l-3.1-2.1-1.4 3.4-11.1 27.1-1 2.4 2.3 1.3c13 7.5 26.3 11.3 39.6 11.3 13 0 24.3-3.9 32.5-11.2 8-7.2 12.5-17.2 12.5-28.3 0-14.6-9.2-25.7-23.9-29-1.5-.3-2.9-.6-4.3-.9-6.4-1.4-11.4-2.4-11.4-4.1 0-1.1 2.4-1.6 4.6-1.6 5.6 0 12.1 2.5 18.2 7l3.1 2.3 1.5-3.5 10.6-25.4 1-2.5-2.4-1.3c-11.8-6.4-22.7-9.3-34.3-9.3zm-114.5 2.1h-31.2v103.1h28.7c18.5 0 35-.8 48.7-10.2 13.6-9.3 21.4-24.4 21.4-41.3 0-19.8-10.1-36.3-27.7-45.2-9-4.4-21.3-6.4-39.9-6.4zm9.4 67.4v-31.5c11.5.4 16.7 5.3 16.7 15.7 0 11.8-6.6 15.1-16.7 15.8zm-52.3-67.4h-39.7v41.1l-23.4-39.6-.9-1.5h-38.900000000000006v103.1h39.7v-40.6l23.2 39.2.9 1.5h39.2v-103.19999999999999h-.1zm-112.9 0h-70.9v103.1h71.7v-32.4h-31.5v-4.2h27.8v-30.8h-27.8v-3.4h30.7v-32.3zm-82.8 0h-41.4v101.6l-2-3.1-23.5-35.9c10.4-3.3 16.8-13.4 16.8-26.8 0-11.4-3.7-20.3-10.9-26.4-7.2-6.2-17.8-9.3-31.3-9.3h-46.8v103.1h40.2v-23l11.3 21.4.8 1.6h86.8v-103.19999999999999zm-99 31h2.4c4.9 0 7.3 2.2 7.3 6.6 0 2.7-.8 6.4-7.3 6.4h-2.4v-13zm-46.4-31h-70.9v103.1h40.9v-34.6h27.1v-30.8h-27.1v-5.3h30v-32.4z"/>
    <clipPath id="clipPath">
      <use xlink:href="#mainfill"/>
    </clipPath>
  </defs>
  <use class="tag" xlink:href="#mainfill" fill="#f7704b"/>
  <use class="g" xlink:href="#mainoutline" fill="#639999"/>
  <use class="overlap" xlink:href="#mainoutline" fill="#5f432e" clip-path="url(#clipPath)"/>
  <path id="XMLID_16_" fill="#639999" d="M421.7,254h-5.1v-19.4h-5.8v-4.3h16.7v4.3h-5.8V254z M430.7,230.3h5.1v9.5H446v-9.5h5.1V254
  	H446v-9.9h-10.3v9.9h-5.1V230.3z M456.6,230.3h14v4.3h-8.9v4.9h8.9v4.3h-8.9v5.9h8.9v4.3h-14V230.3z M485.8,230.3h5.8
  	c6.1,0,9.1,2.2,9.1,7.3c0,4.5-3.1,7.4-8.5,7.4h-1.4v9.1h-5.1V230.3z M491.6,241c2.7,0,3.9-1,3.9-3.6c0-2.4-1.3-3.3-3.9-3.3h-0.7v7
  	H491.6z M524.9,251c-2.5,2.4-5.6,3.6-9,3.6c-2.9,0-5.8-1-8.1-2.9c-3-2.4-4.6-5.8-4.6-9.6c0-3.4,1.3-6.4,3.7-8.8
  	c2.4-2.3,5.7-3.6,9-3.6c3.3,0,6.6,1.3,9,3.6c2.4,2.4,3.7,5.4,3.7,8.8C528.6,245.6,527.3,248.7,524.9,251z M523.4,242.2
  	c0-4.4-3.1-8-7.4-8c-4.4,0-7.5,3.6-7.5,8c0,4.4,2.9,7.9,7.5,7.9C520.3,250.1,523.4,246.6,523.4,242.2z M533,230.3h6.5
  	c4.1,0,7.3,0.4,9.9,2.3c2.9,2.1,4.4,5.4,4.4,9.6c0,4.2-1.6,7.5-4.4,9.6c-2.9,2.1-5.9,2.2-9.4,2.2c-0.6,0-1.2,0-1.8,0H533V230.3z
  	 M540.9,249.7c5.2,0,7.6-2.2,7.6-7.6c0-5.4-2.5-7.6-7.6-7.6H538v15.1H540.9z M570.4,233.8c-5.1,0-8.3,3.3-8.3,8.4
  	c0,4.9,2.9,8.1,7.8,8.1c2.7,0,5.1-0.9,7.1-2.8l0,5.2c-2.2,1.3-4.5,1.9-7.1,1.9c-7.7,0-12.9-5.3-12.9-12.5c0-7,5.1-12.4,13-12.4
  	c3,0,5.3,0.7,7.3,1.7l-0.2,5.1C575.3,234.9,573.2,233.8,570.4,233.8z M588.4,230.3h5.8l9.2,23.7h-5.8l-1.9-5h-9.2l-1.7,5h-5.4
  	L588.4,230.3z M591.8,237.3c-0.1-0.4-0.4-1.5-0.7-3.2c-0.3,1.9-0.6,3-0.7,3.3l-2.6,7.6h6.6L591.8,237.3z M607.7,247.8
  	c0.7,1.8,2.4,2.8,4.4,2.8c2.5,0,3.8-1.3,3.8-3.1c0-2.1-2-2.5-5.2-4.2c-3.5-1.8-5.5-3.5-5.5-6.9c0-3.7,3.2-6.7,8.4-6.7
  	c2.9,0,4.9,1,6.5,3.1l-3,2.9c-0.7-1.4-1.9-2.1-3.5-2.1c-2.1,0-3.4,1.2-3.4,2.7c0,2.2,2.1,2.7,4.8,3.9c4,1.8,5.9,4.1,5.9,7.1
  	c0,4.3-3.1,7.3-8.4,7.3c-3.7,0-6.3-1.3-7.6-3.6L607.7,247.8z M633.9,254h-5.1v-19.4H623v-4.3h16.7v4.3h-5.8V254z"/>
</svg>
