<svg xmlns="http://www.w3.org/2000/svg" width="1280" height="1050" viewBox="0 0 1280 1050"><linearGradient id="a" gradientUnits="userSpaceOnUse" x1="660.858" y1="363.101" x2="694.755" y2="100.001"><stop offset="0" stop-color="#CDC1BA"/><stop offset=".223" stop-color="#B5B4B5"/><stop offset=".517" stop-color="#9CA6AF"/><stop offset=".785" stop-color="#8C9EAC"/><stop offset="1" stop-color="#879BAB"/></linearGradient><path fill="url(#a)" d="M0 0h1280v1050h-1280z"/><path fill="#FFB778" d="M1280 334.9c-13.9 2.9-28.3 3.3-42.7 3-24.2-.6-48-1.1-69.5-13.5-6.3-3.7-11.9-7.4-19.4-5.5-8.8 2.2-15.6 9-24.5 11.6-10.7 3-22.4 3.1-33.5 3.7-13.4.7-26.6-.2-40-1.4-20.3-1.8-41.6 5.9-56.6 7.6-14.9 1.8-51.2-11.6-51.2-11.6-17.6-17.8-42.9-21.6-66.8-18.5-31.3 4-60.5 14.8-92.5 15.6-33.6.9-67.1-3.7-100.5-6.6-21.6-1.8-43.2-3.1-64.8-3.9-8.5-3.3-17.4-5.5-26.6-6.4-16.2-1.5-32.4.7-47.7 5.7-20.3.4-40.5 1.1-60.7 2.4-33.4 2.1-67.1 4.7-100.5.9-31.4-3.6-62.2-11.4-94-7.2-4.6.6-9.2 1.4-13.8 2.1-2.4-.4-4.7-.8-7.1-1-11.2-1.3-22.5-.3-31.6 5.2-6.9-.2-13.7-1.3-20.3-3.6-7.7-2.7-14.7-7.1-22.9-8.2-14.6-2-31 3.7-45.5 5.3-18.7 2-37.6 2.7-56.4 3.3-30.5.9-62.6 2.5-90.8-9.9v746h1280v-715.1z"/><path fill="#FB9374" d="M1280 377.1c-101.3 4.2-199.5-35-294.5-71.4-12.6-4.8-25.7-9.7-39.1-8.9-9.8.6-19.1 4.1-28.4 7.1-26.4 8.7-53.8 13.8-81.1 19-69.8 13.2-139.6 26.3-209.3 39.5-24.4 4.6-49.1 9.2-73.9 8-19.5-1-38.6-5.5-58-7.1-27.7-2.3-55.4 1.3-82.9 5.4-50.4 7.6-100.6 17.1-150.3 28.4-11.2 2.5-22.6 5.2-33.9 3.7-11-1.4-21.1-6.6-31.3-11-61.7-27.2-133.9-29.4-197.3-6.5v666.7h1280v-672.9z"/><path fill="#B3665A" d="M1253.6 390.7c-28 8.5-58.9 7.5-86.3-2.8-7.8-2.9-15.3-6.6-23.4-8.5-20.9-4.8-42.3 2.9-63.1 8.1-21.8 5.4-44.3 8.2-66.8 8.1-6 0-12.4-.3-17.7-3.2-2.7-1.5-5.1-3.6-8.1-4.1-2.8-.5-5.6.5-8.3 1.5-22.6 8.5-45.2 18.2-68.4 24.7-18-10.7-41.5-25-59-35.3-6.5-3.9-13.3-7.8-20.8-8.5-9.9-.9-19.2 3.9-28.8 6.2-21.1 5-42.9-2-64.5-3.3-37.8-2.2-75.6 13.6-112.8 6.7-14.5-2.7-29.8-8.7-43.5-3.1-4.5 1.8-8.6 4.9-13.3 6-6.3 1.5-12.9-.7-19.3-1.3-28-2.6-52.3 23.9-80.4 22.2-9.1-.5-17.8-4-26.8-5.5-30.2-4.7-58.3 13.8-86.2 26.3-28 12.5-58.6 19.3-89.2 19.7-38.1.6-76.3-8.4-114.1-3.5-21.2 2.7-41.6 9.7-62.4 14.6-29.6 6.9-60.4 9.5-90.5 5.6v588.7h1280v-666.5c-8.7 1.2-17.7 4.6-26.3 7.2z"/><path fill="#9A5651" d="M1280 454.7c-37 12.1-76.4 14.7-115.2 17.1l-318.6 20.2c-21.4 1.4-43 2.7-63.7 8.5-29.8 8.4-59.1 26-89.5 20.4-9.7-1.8-18.8-5.8-28.3-8-19.3-4.3-39.3-.5-58.8 3-117.7 21.6-236.9 36.1-356.6 35.9-27.5 0-55.3-.8-82.3 4.8-23.2 4.8-45.2 14.3-68.2 20.2-32.2 8.3-66.1 9.3-98.8 3.3v469.9h1280v-595.3z"/><path fill="#6A3E4A" d="M1280 597.8c-66.4 18.6-138.1 14.8-203.5 36.8-30.3 10.2-58.8 25.8-89.8 33.6-34.1 8.5-70.1 7.4-103.7 17.5-26.9 8.1-51.7 23.3-79.4 28-19.7 3.3-39.9 1.2-59.8-1.2-135.4-16.1-269.6-41.1-401.7-74.9-19-4.9-38.3-9.9-57.9-9.4-11.6.3-23 2.7-34.5 3.9-83.5 9.3-171.2-37-249.7-13v430.9h1280v-452.2z"/><path fill="#332028" d="M1280 739c-12.3-3.1-25.4-2.6-37.3 1.5-12.6 4.4-23.6 12.5-35.5 18.5-15.1 7.5-31.7 11.3-48.1 15.1-69.5 16.1-139 32.2-208.6 48.2-99 22.9-198.8 45.9-300.4 48.2-48.3 1.1-98.4-2.3-143.2 15.9-19.7 8-37.9 19.9-58.6 24.7-17.5 4.1-35.8 2.7-53.7 4.5-51.8 5.3-97.1 36.4-147 51-23.9 7-48.7 10.1-73.3 13.9-58.9 9.1-117.2 22.3-174.2 39.5v30.1h1280v-311.1z"/></svg>