<svg xmlns="http://www.w3.org/2000/svg" viewBox="0 0 1280 746" enable-background="new 0 0 1280 746"><path fill="#FFB778" d="M1280 30.9c-13.9 2.9-28.3 3.3-42.7 3-24.2-.6-48-1.1-69.5-13.5-6.3-3.7-11.9-7.4-19.4-5.5-8.8 2.2-15.6 9-24.5 11.6-10.7 3-22.4 3.1-33.5 3.7-13.4.7-26.6-.2-40-1.4-20.3-1.8-41.6 5.9-56.6 7.6l-51.2-11.6c-17.6-17.8-42.9-21.6-66.8-18.5-31.3 4-60.5 14.8-92.5 15.6-33.6.9-67.1-3.7-100.5-6.6-21.6-1.8-43.2-3.1-64.8-3.9-8.5-3.3-17.4-5.5-26.6-6.4-16.2-1.5-32.4.7-47.7 5.7-20.3.4-40.5 1.1-60.7 2.4-33.4 2.1-67.1 4.7-100.5.9-31.4-3.6-62.2-11.4-94-7.2-4.6.6-9.2 1.4-13.8 2.1-2.4-.4-4.7-.8-7.1-1-11.3-1.3-22.6-.3-31.6 5.3-6.9-.2-13.7-1.3-20.3-3.6-7.7-2.7-14.7-7.1-22.9-8.2-14.6-2-31 3.7-45.5 5.3-18.7 2-37.6 2.7-56.4 3.3-30.6.9-62.6 2.5-90.9-10v746h1280v-715.1z"/></svg>